name D:\school\WTK\thesis\model\3dpredictsim\Results\windlass\Pog_s1_tmt_bCst_d00_k1000_WL10_ig24.mot
datacolumns 128
datarows 4
range 1.56240569 1.59365380
endheader
time	pelvis_tilt	pelvis_list	pelvis_rotation	pelvis_tx	pelvis_ty	pelvis_tz	hip_flexion_l	hip_adduction_l	hip_rotation_l	hip_flexion_r	hip_adduction_r	hip_rotation_r	knee_angle_l	knee_angle_r	ankle_angle_l	ankle_angle_r	subtalar_angle_l	subtalar_angle_r	tmt_angle_l	tmt_angle_r	mtp_angle_l	mtp_angle_r	lumbar_extension	lumbar_bending	lumbar_rotation	arm_flex_l	arm_add_l	arm_rot_l	arm_flex_r	arm_add_r	arm_rot_r	elbow_flex_l	elbow_flex_r	pro_sup_l	pro_sup_r	glut_med1_l/activation	glut_med2_l/activation	glut_med3_l/activation	glut_min1_l/activation	glut_min2_l/activation	glut_min3_l/activation	semimem_l/activation	semiten_l/activation	bifemlh_l/activation	bifemsh_l/activation	sar_l/activation	add_long_l/activation	add_brev_l/activation	add_mag1_l/activation	add_mag2_l/activation	add_mag3_l/activation	tfl_l/activation	pect_l/activation	grac_l/activation	glut_max1_l/activation	glut_max2_l/activation	glut_max3_l/activation	iliacus_l/activation	psoas_l/activation	quad_fem_l/activation	gem_l/activation	peri_l/activation	rect_fem_l/activation	vas_med_l/activation	vas_int_l/activation	vas_lat_l/activation	med_gas_l/activation	lat_gas_l/activation	soleus_l/activation	tib_post_l/activation	flex_dig_l/activation	flex_hal_l/activation	tib_ant_l/activation	per_brev_l/activation	per_long_l/activation	per_tert_l/activation	ext_dig_l/activation	ext_hal_l/activation	ercspn_l/activation	intobl_l/activation	extobl_l/activation	glut_med1_r/activation	glut_med2_r/activation	glut_med3_r/activation	glut_min1_r/activation	glut_min2_r/activation	glut_min3_r/activation	semimem_r/activation	semiten_r/activation	bifemlh_r/activation	bifemsh_r/activation	sar_r/activation	add_long_r/activation	add_brev_r/activation	add_mag1_r/activation	add_mag2_r/activation	add_mag3_r/activation	tfl_r/activation	pect_r/activation	grac_r/activation	glut_max1_r/activation	glut_max2_r/activation	glut_max3_r/activation	iliacus_r/activation	psoas_r/activation	quad_fem_r/activation	gem_r/activation	peri_r/activation	rect_fem_r/activation	vas_med_r/activation	vas_int_r/activation	vas_lat_r/activation	med_gas_r/activation	lat_gas_r/activation	soleus_r/activation	tib_post_r/activation	flex_dig_r/activation	flex_hal_r/activation	tib_ant_r/activation	per_brev_r/activation	per_long_r/activation	per_tert_r/activation	ext_dig_r/activation	ext_hal_r/activation	ercspn_r/activation	intobl_r/activation	extobl_r/activation	
          1.56240569	         -2.92032104	          1.43622662	         -5.79209016	          1.95300711	          0.85795529	          0.00158698	         31.27678487	          2.89322328	         -1.09350806	        -17.69926749	         -1.37474652	          8.08710996	        -19.83710733	        -10.66829152	         -1.04721782	         -2.36826527	         -3.64820876	         11.33150777	         -0.12293954	         -1.94201257	          1.29417493	         26.71557406	         -0.71145403	          0.22846667	          1.61697390	         -7.91464012	        -13.63903244	         13.60067819	          5.97499520	        -13.46679737	         17.62659611	         14.27134368	         29.34860301	         86.51662706	         86.51662706	          0.05867928	          0.05432696	          0.05000024	          0.05868021	          0.05868009	          0.05000731	          0.05868005	          0.05867930	          0.05868033	          0.05000081	          0.05000099	          0.11132119	          0.23429527	          0.12394805	          0.11138149	          0.11226693	          0.05000033	          0.07875654	          0.05868989	          0.05000052	          0.05000056	          0.13258446	          0.06926819	          0.05612662	          0.31586850	          0.14327031	          0.08917838	          0.05000041	          0.16350976	          0.16941888	          0.14259822	          0.05868002	          0.05868001	          0.05868002	          0.05000004	          0.05000059	          0.05000148	          0.54586704	          0.29620040	          0.15178567	          0.58394965	          0.68242554	          0.35100959	          0.05000028	          0.10855753	          0.11131920	          0.30962225	          0.08656329	          0.05000052	          0.29964167	          0.18739218	          0.09281932	          0.05000284	          0.05000047	          0.05000037	          0.06578774	          0.08465906	          0.09643621	          0.15569721	          0.05000375	          0.05000622	          0.05000123	          0.23278462	          0.06954209	          0.05000193	          0.05000169	          0.05000140	          0.05000130	          0.28685727	          0.43764000	          0.05000020	          0.05000063	          0.05000035	          0.15332409	          0.12001386	          0.06877971	          0.06147921	          0.27036195	          0.34766488	          0.23434855	          0.18457577	          0.18406710	          0.25363675	          0.05000004	          0.06663509	          0.14215842	          0.05000033	          0.05000012	          0.05000023	          0.05000002	          0.05000053	          0.06074835	
          1.57282173	         -2.90764060	          1.58005246	         -6.04573601	          1.96886263	          0.85685365	          0.00138034	         30.70467181	          3.33041061	         -0.78266926	        -17.30450761	         -1.69810105	          7.80093990	        -20.26449254	        -12.92499332	         -0.98992126	         -3.25551565	         -4.36607580	         12.34657074	         -0.16141639	         -2.30262385	          1.50028178	         27.44748469	         -0.51995735	         -0.05603292	          1.66957824	         -8.86279838	        -13.64328559	         13.48459419	          5.72978093	        -13.49075885	         17.84495224	         14.19857048	         30.24427862	         86.51662706	         86.51662706	          0.05000008	          0.05000020	          0.11955856	          0.05000025	          0.05000025	          0.05000030	          0.05000012	          0.05000017	          0.05000033	          0.05000014	          0.05482649	          0.09485462	          0.19963831	          0.30380708	          0.22408469	          0.13384242	          0.05000278	          0.06710942	          0.05000905	          0.09202662	          0.10648886	          0.11297488	          0.05902317	          0.06883995	          0.34133074	          0.12207774	          0.07598711	          0.05868032	          0.29501333	          0.29317903	          0.25105306	          0.05000000	          0.05000002	          0.05000000	          0.05000007	          0.05207952	          0.05000044	          0.53644521	          0.25238648	          0.13362929	          0.54716389	          0.59668539	          0.29908799	          0.05000001	          0.09249956	          0.09485272	          0.26382261	          0.07375876	          0.05296988	          0.25531850	          0.15967296	          0.07908943	          0.05000783	          0.05000084	          0.05000227	          0.05605639	          0.07213642	          0.19763473	          0.32324939	          0.17948836	          0.05917018	          0.15370705	          0.19835093	          0.05925682	          0.05000360	          0.05003311	          0.05003037	          0.05855301	          0.24442501	          0.37969129	          0.05867956	          0.05867911	          0.05000114	          0.13064423	          0.10335817	          0.13064239	          0.13063715	          0.23036964	          0.29623783	          0.19968340	          0.15727312	          0.15683986	          0.21611859	          0.11223113	          0.05677842	          0.12113027	          0.05000025	          0.13472991	          0.05000230	          0.05688311	          0.06605720	          0.05868049	
          1.58323777	         -2.89172442	          1.71915626	         -6.27189361	          1.98491067	          0.85563498	          0.00119039	         29.87792078	          3.72600084	         -0.42914561	        -16.82868932	         -1.99944924	          7.50911921	        -20.74616321	        -15.32924451	         -0.75397333	         -4.18362308	         -5.10460619	         13.27341697	         -0.35244589	         -2.61623042	          1.54878983	         27.66683889	         -0.31471060	         -0.34067051	          1.71170707	         -9.80665405	        -13.65318911	         13.40899198	          5.41147708	        -13.52497186	         17.98752163	         14.13029750	         31.15736580	         86.51662706	         86.51662706	          0.29013571	          0.30121504	          0.39014163	          0.31128448	          0.14178687	          0.24337441	          0.08192167	          0.11291719	          0.08693730	          0.08082127	          0.05000158	          0.08082372	          0.17010782	          0.25886787	          0.19093841	          0.13714090	          0.05000039	          0.05868349	          0.11234634	          0.21485406	          0.17321960	          0.11041379	          0.05615418	          0.05865725	          0.29084077	          0.10402009	          0.17341097	          0.05000027	          0.25137483	          0.26464052	          0.21710747	          0.05062980	          0.05000149	          0.06534010	          0.07282718	          0.05000042	          0.05000058	          0.54095508	          0.21505317	          0.11386268	          0.46622680	          0.56862105	          0.30948834	          0.05285518	          0.08082736	          0.08082198	          0.33576182	          0.06284830	          0.05000004	          0.28386444	          0.13605404	          0.06739049	          0.05000547	          0.05000050	          0.05000033	          0.05000022	          0.06146622	          0.17297747	          0.27545069	          0.15293841	          0.05041912	          0.13097081	          0.16901138	          0.06962668	          0.05000059	          0.05000129	          0.05000091	          0.05000061	          0.20826947	          0.35755471	          0.05000008	          0.05000037	          0.05000012	          0.11131918	          0.08806939	          0.11131767	          0.11131319	          0.19629305	          0.25241795	          0.17014596	          0.13400912	          0.13364008	          0.18415019	          0.20468721	          0.12716725	          0.13383756	          0.39938215	          0.24362687	          0.14700127	          0.09045656	          0.05628594	          0.05000044	
          1.59365380	         -2.87481186	          1.84098395	         -6.46724943	          2.00089718	          0.85438068	          0.00098747	         28.90455499	          4.09524608	         -0.08043398	        -16.24575507	         -2.26891325	          7.21508425	        -20.96436047	        -17.90373929	         -0.97612778	         -5.06754927	         -5.85658015	         14.10448801	         -0.28072074	         -2.74112491	          1.52309773	         26.96148616	         -0.11944837	         -0.60665602	          1.74475882	        -10.69074759	        -13.66137353	         13.39149485	          5.06447483	        -13.57087981	         18.07517599	         14.03778149	         32.05955322	         86.51662706	         86.51662706	          0.42294731	          0.46443546	          0.50148901	          0.26524052	          0.38431711	          0.35874397	          0.06980382	          0.09621472	          0.07407776	          0.06886613	          0.05000038	          0.06886823	          0.14494533	          0.22057677	          0.22159100	          0.16833442	          0.05000044	          0.05000434	          0.09572813	          0.30610923	          0.22839562	          0.16406076	          0.05000007	          0.05000008	          0.24781935	          0.08863354	          0.14776049	          0.05000007	          0.35697627	          0.36501063	          0.30325383	          0.05000076	          0.05000389	          0.05868002	          0.17931868	          0.08904322	          0.06943510	          0.60110594	          0.18324224	          0.09701998	          0.39726198	          0.48451121	          0.31634186	          0.07497208	          0.06887130	          0.06886669	          0.28609559	          0.05355184	          0.05000034	          0.24187508	          0.11592889	          0.05742227	          0.05165229	          0.05000134	          0.05000276	          0.05000036	          0.05237464	          0.19521534	          0.23470669	          0.13031620	          0.05828521	          0.11159811	          0.14401227	          0.05932883	          0.05000294	          0.05000560	          0.05000438	          0.05000468	          0.17746203	          0.31216749	          0.05000056	          0.05000236	          0.05000067	          0.09485276	          0.07504222	          0.09485156	          0.09484774	          0.16725712	          0.21507998	          0.14497774	          0.11418682	          0.11387228	          0.15691122	          0.20557005	          0.10835683	          0.11404032	          0.34030522	          0.24572344	          0.12525685	          0.11926547	          0.05000003	          0.05000007	
